<mxfile host="Electron" agent="Mozilla/5.0 (X11; Linux x86_64) AppleWebKit/537.36 (KHTML, like Gecko) draw.io/24.7.5 Chrome/126.0.6478.183 Electron/31.3.0 Safari/537.36" version="24.7.5">
  <diagram id="C5RBs43oDa-KdzZeNtuy" name="Page-1">
    <mxGraphModel dx="2534" dy="1197" grid="1" gridSize="10" guides="1" tooltips="1" connect="1" arrows="1" fold="1" page="1" pageScale="1" pageWidth="827" pageHeight="1169" math="0" shadow="0">
      <root>
        <mxCell id="WIyWlLk6GJQsqaUBKTNV-0" />
        <mxCell id="WIyWlLk6GJQsqaUBKTNV-1" parent="WIyWlLk6GJQsqaUBKTNV-0" />
        <mxCell id="HQOiN5AQCsMCG7mMh8zH-0" value="Tarjeta" style="rounded=0;whiteSpace=wrap;html=1;" vertex="1" parent="WIyWlLk6GJQsqaUBKTNV-1">
          <mxGeometry x="630" y="315" width="120" height="60" as="geometry" />
        </mxCell>
        <mxCell id="HQOiN5AQCsMCG7mMh8zH-1" value="Usuario" style="rounded=0;whiteSpace=wrap;html=1;" vertex="1" parent="WIyWlLk6GJQsqaUBKTNV-1">
          <mxGeometry x="150" y="310" width="120" height="60" as="geometry" />
        </mxCell>
        <mxCell id="HQOiN5AQCsMCG7mMh8zH-2" value="&lt;div&gt;&lt;span style=&quot;background-color: initial;&quot;&gt;Movimiento&lt;/span&gt;&lt;br&gt;&lt;/div&gt;" style="rhombus;whiteSpace=wrap;html=1;shadow=0;fontFamily=Helvetica;fontSize=12;align=center;strokeWidth=1;spacing=6;spacingTop=-4;" vertex="1" parent="WIyWlLk6GJQsqaUBKTNV-1">
          <mxGeometry x="360" y="130" width="190" height="60" as="geometry" />
        </mxCell>
        <mxCell id="HQOiN5AQCsMCG7mMh8zH-3" value="Nombre" style="ellipse;whiteSpace=wrap;html=1;" vertex="1" parent="WIyWlLk6GJQsqaUBKTNV-1">
          <mxGeometry x="20" y="405" width="90" height="40" as="geometry" />
        </mxCell>
        <mxCell id="HQOiN5AQCsMCG7mMh8zH-4" value="Dirección" style="ellipse;whiteSpace=wrap;html=1;" vertex="1" parent="WIyWlLk6GJQsqaUBKTNV-1">
          <mxGeometry x="135" y="435" width="90" height="40" as="geometry" />
        </mxCell>
        <mxCell id="HQOiN5AQCsMCG7mMh8zH-5" value="Salario" style="ellipse;whiteSpace=wrap;html=1;" vertex="1" parent="WIyWlLk6GJQsqaUBKTNV-1">
          <mxGeometry x="240" y="435" width="90" height="40" as="geometry" />
        </mxCell>
        <mxCell id="HQOiN5AQCsMCG7mMh8zH-7" value="Fecha creacion" style="ellipse;whiteSpace=wrap;html=1;" vertex="1" parent="WIyWlLk6GJQsqaUBKTNV-1">
          <mxGeometry x="860" y="420" width="90" height="40" as="geometry" />
        </mxCell>
        <mxCell id="HQOiN5AQCsMCG7mMh8zH-8" value="Tipo&lt;div&gt;(N, R, I)&lt;/div&gt;" style="ellipse;whiteSpace=wrap;html=1;" vertex="1" parent="WIyWlLk6GJQsqaUBKTNV-1">
          <mxGeometry x="540" y="450" width="90" height="40" as="geometry" />
        </mxCell>
        <mxCell id="HQOiN5AQCsMCG7mMh8zH-9" value="Número&lt;div&gt;Tarjeta&lt;/div&gt;" style="ellipse;whiteSpace=wrap;html=1;" vertex="1" parent="WIyWlLk6GJQsqaUBKTNV-1">
          <mxGeometry x="840" y="365" width="90" height="40" as="geometry" />
        </mxCell>
        <mxCell id="HQOiN5AQCsMCG7mMh8zH-10" value="&lt;u&gt;Número Solicitud&lt;/u&gt;" style="ellipse;whiteSpace=wrap;html=1;" vertex="1" parent="WIyWlLk6GJQsqaUBKTNV-1">
          <mxGeometry x="230" y="90" width="90" height="40" as="geometry" />
        </mxCell>
        <mxCell id="HQOiN5AQCsMCG7mMh8zH-13" value="&lt;div&gt;Descrip.&lt;/div&gt;Movimiento" style="ellipse;whiteSpace=wrap;html=1;" vertex="1" parent="WIyWlLk6GJQsqaUBKTNV-1">
          <mxGeometry x="320" y="20" width="90" height="40" as="geometry" />
        </mxCell>
        <mxCell id="HQOiN5AQCsMCG7mMh8zH-14" value="Establecimiento" style="ellipse;whiteSpace=wrap;html=1;" vertex="1" parent="WIyWlLk6GJQsqaUBKTNV-1">
          <mxGeometry x="520" y="20" width="90" height="40" as="geometry" />
        </mxCell>
        <mxCell id="HQOiN5AQCsMCG7mMh8zH-15" value="Límite" style="ellipse;whiteSpace=wrap;html=1;" vertex="1" parent="WIyWlLk6GJQsqaUBKTNV-1">
          <mxGeometry x="600" y="490" width="90" height="40" as="geometry" />
        </mxCell>
        <mxCell id="HQOiN5AQCsMCG7mMh8zH-16" value="Estado" style="ellipse;whiteSpace=wrap;html=1;" vertex="1" parent="WIyWlLk6GJQsqaUBKTNV-1">
          <mxGeometry x="840" y="310" width="90" height="40" as="geometry" />
        </mxCell>
        <mxCell id="HQOiN5AQCsMCG7mMh8zH-17" value="Fecha movimiento" style="ellipse;whiteSpace=wrap;html=1;" vertex="1" parent="WIyWlLk6GJQsqaUBKTNV-1">
          <mxGeometry x="620" y="40" width="90" height="40" as="geometry" />
        </mxCell>
        <mxCell id="HQOiN5AQCsMCG7mMh8zH-18" value="&lt;u&gt;Número&lt;/u&gt;&lt;div&gt;&lt;u&gt;Solicitud&lt;/u&gt;&lt;/div&gt;" style="ellipse;whiteSpace=wrap;html=1;" vertex="1" parent="WIyWlLk6GJQsqaUBKTNV-1">
          <mxGeometry x="500" y="390" width="90" height="40" as="geometry" />
        </mxCell>
        <mxCell id="HQOiN5AQCsMCG7mMh8zH-20" value="Fecha cancelacion" style="ellipse;whiteSpace=wrap;html=1;" vertex="1" parent="WIyWlLk6GJQsqaUBKTNV-1">
          <mxGeometry x="840" y="475" width="90" height="40" as="geometry" />
        </mxCell>
        <mxCell id="HQOiN5AQCsMCG7mMh8zH-21" value="&lt;u&gt;ID cliente&lt;/u&gt;" style="ellipse;whiteSpace=wrap;html=1;" vertex="1" parent="WIyWlLk6GJQsqaUBKTNV-1">
          <mxGeometry x="20" y="340" width="90" height="40" as="geometry" />
        </mxCell>
        <mxCell id="HQOiN5AQCsMCG7mMh8zH-22" value="&lt;u&gt;ID usuario&lt;/u&gt;" style="ellipse;whiteSpace=wrap;html=1;" vertex="1" parent="WIyWlLk6GJQsqaUBKTNV-1">
          <mxGeometry x="240" y="40" width="90" height="40" as="geometry" />
        </mxCell>
        <mxCell id="HQOiN5AQCsMCG7mMh8zH-24" value="1 Gestión, 1 usuario y 1 tarjeta" style="text;html=1;align=center;verticalAlign=middle;whiteSpace=wrap;rounded=0;" vertex="1" parent="WIyWlLk6GJQsqaUBKTNV-1">
          <mxGeometry x="360" y="325" width="190" height="30" as="geometry" />
        </mxCell>
        <mxCell id="HQOiN5AQCsMCG7mMh8zH-25" value="1 Usuario Muchas Tarjetas&lt;div&gt;1 a muchos&lt;/div&gt;" style="text;html=1;align=center;verticalAlign=middle;whiteSpace=wrap;rounded=0;" vertex="1" parent="WIyWlLk6GJQsqaUBKTNV-1">
          <mxGeometry x="1030" y="220" width="190" height="30" as="geometry" />
        </mxCell>
        <mxCell id="HQOiN5AQCsMCG7mMh8zH-26" value="Usuario" style="rounded=0;whiteSpace=wrap;html=1;" vertex="1" parent="WIyWlLk6GJQsqaUBKTNV-1">
          <mxGeometry x="1175" y="120" width="120" height="60" as="geometry" />
        </mxCell>
        <mxCell id="HQOiN5AQCsMCG7mMh8zH-27" value="Tarjeta" style="rounded=0;whiteSpace=wrap;html=1;" vertex="1" parent="WIyWlLk6GJQsqaUBKTNV-1">
          <mxGeometry x="1170" y="330" width="120" height="60" as="geometry" />
        </mxCell>
        <mxCell id="HQOiN5AQCsMCG7mMh8zH-29" value="" style="edgeStyle=orthogonalEdgeStyle;rounded=0;html=1;jettySize=auto;orthogonalLoop=1;fontSize=11;endArrow=block;endFill=0;endSize=8;strokeWidth=1;shadow=0;labelBackgroundColor=none;exitX=0.5;exitY=1;exitDx=0;exitDy=0;" edge="1" parent="WIyWlLk6GJQsqaUBKTNV-1" source="HQOiN5AQCsMCG7mMh8zH-26">
          <mxGeometry x="-0.1364" relative="1" as="geometry">
            <mxPoint as="offset" />
            <mxPoint x="1205" y="280" as="sourcePoint" />
            <mxPoint x="1235" y="330" as="targetPoint" />
          </mxGeometry>
        </mxCell>
        <mxCell id="HQOiN5AQCsMCG7mMh8zH-30" value="1" style="text;html=1;align=center;verticalAlign=middle;whiteSpace=wrap;rounded=0;" vertex="1" parent="WIyWlLk6GJQsqaUBKTNV-1">
          <mxGeometry x="1235" y="180" width="40" height="30" as="geometry" />
        </mxCell>
        <mxCell id="HQOiN5AQCsMCG7mMh8zH-31" value="*" style="text;html=1;align=center;verticalAlign=middle;whiteSpace=wrap;rounded=0;" vertex="1" parent="WIyWlLk6GJQsqaUBKTNV-1">
          <mxGeometry x="1235" y="310" width="40" height="30" as="geometry" />
        </mxCell>
        <mxCell id="HQOiN5AQCsMCG7mMh8zH-32" value="" style="endArrow=none;html=1;rounded=0;" edge="1" parent="WIyWlLk6GJQsqaUBKTNV-1">
          <mxGeometry width="50" height="50" relative="1" as="geometry">
            <mxPoint x="990" y="600" as="sourcePoint" />
            <mxPoint x="990" y="10" as="targetPoint" />
          </mxGeometry>
        </mxCell>
        <mxCell id="HQOiN5AQCsMCG7mMh8zH-34" value="" style="endArrow=none;html=1;rounded=0;entryX=0.5;entryY=1;entryDx=0;entryDy=0;exitX=0.5;exitY=0;exitDx=0;exitDy=0;" edge="1" parent="WIyWlLk6GJQsqaUBKTNV-1" source="HQOiN5AQCsMCG7mMh8zH-1" target="HQOiN5AQCsMCG7mMh8zH-2">
          <mxGeometry width="50" height="50" relative="1" as="geometry">
            <mxPoint x="260" y="290" as="sourcePoint" />
            <mxPoint x="570" y="300" as="targetPoint" />
          </mxGeometry>
        </mxCell>
        <mxCell id="HQOiN5AQCsMCG7mMh8zH-35" value="" style="endArrow=none;html=1;rounded=0;entryX=0.5;entryY=1;entryDx=0;entryDy=0;exitX=0.5;exitY=0;exitDx=0;exitDy=0;" edge="1" parent="WIyWlLk6GJQsqaUBKTNV-1" source="HQOiN5AQCsMCG7mMh8zH-0" target="HQOiN5AQCsMCG7mMh8zH-2">
          <mxGeometry width="50" height="50" relative="1" as="geometry">
            <mxPoint x="220" y="320" as="sourcePoint" />
            <mxPoint x="465" y="200" as="targetPoint" />
          </mxGeometry>
        </mxCell>
        <mxCell id="HQOiN5AQCsMCG7mMh8zH-36" value="Un cliente puede hacer diversas solicitudes y unas se pueden rechazar" style="text;html=1;align=center;verticalAlign=middle;whiteSpace=wrap;rounded=0;" vertex="1" parent="WIyWlLk6GJQsqaUBKTNV-1">
          <mxGeometry x="205" y="500" width="190" height="60" as="geometry" />
        </mxCell>
        <mxCell id="HQOiN5AQCsMCG7mMh8zH-73" value="Saldo" style="ellipse;whiteSpace=wrap;html=1;" vertex="1" parent="WIyWlLk6GJQsqaUBKTNV-1">
          <mxGeometry x="680" y="520" width="90" height="40" as="geometry" />
        </mxCell>
        <mxCell id="HQOiN5AQCsMCG7mMh8zH-74" value="Fecha última modi." style="ellipse;whiteSpace=wrap;html=1;" vertex="1" parent="WIyWlLk6GJQsqaUBKTNV-1">
          <mxGeometry x="770" y="520" width="90" height="40" as="geometry" />
        </mxCell>
        <mxCell id="HQOiN5AQCsMCG7mMh8zH-75" value="Monto" style="ellipse;whiteSpace=wrap;html=1;" vertex="1" parent="WIyWlLk6GJQsqaUBKTNV-1">
          <mxGeometry x="660" y="80" width="90" height="40" as="geometry" />
        </mxCell>
        <mxCell id="HQOiN5AQCsMCG7mMh8zH-76" value="Interés" style="ellipse;whiteSpace=wrap;html=1;" vertex="1" parent="WIyWlLk6GJQsqaUBKTNV-1">
          <mxGeometry x="630" y="120" width="90" height="40" as="geometry" />
        </mxCell>
        <mxCell id="HQOiN5AQCsMCG7mMh8zH-77" value="Tipo&lt;div&gt;Movimiento&lt;/div&gt;" style="ellipse;whiteSpace=wrap;html=1;" vertex="1" parent="WIyWlLk6GJQsqaUBKTNV-1">
          <mxGeometry x="420" y="20" width="90" height="40" as="geometry" />
        </mxCell>
        <mxCell id="HQOiN5AQCsMCG7mMh8zH-78" value="" style="endArrow=none;html=1;rounded=0;entryX=0.688;entryY=0.186;entryDx=0;entryDy=0;entryPerimeter=0;" edge="1" parent="WIyWlLk6GJQsqaUBKTNV-1" source="HQOiN5AQCsMCG7mMh8zH-76" target="HQOiN5AQCsMCG7mMh8zH-2">
          <mxGeometry width="50" height="50" relative="1" as="geometry">
            <mxPoint x="735" y="222.5" as="sourcePoint" />
            <mxPoint x="500" y="97.5" as="targetPoint" />
          </mxGeometry>
        </mxCell>
        <mxCell id="HQOiN5AQCsMCG7mMh8zH-79" value="" style="endArrow=none;html=1;rounded=0;entryX=0.676;entryY=0.173;entryDx=0;entryDy=0;entryPerimeter=0;exitX=0;exitY=0.5;exitDx=0;exitDy=0;" edge="1" parent="WIyWlLk6GJQsqaUBKTNV-1" source="HQOiN5AQCsMCG7mMh8zH-75" target="HQOiN5AQCsMCG7mMh8zH-2">
          <mxGeometry width="50" height="50" relative="1" as="geometry">
            <mxPoint x="580" y="90" as="sourcePoint" />
            <mxPoint x="480" y="99" as="targetPoint" />
          </mxGeometry>
        </mxCell>
        <mxCell id="HQOiN5AQCsMCG7mMh8zH-80" value="" style="endArrow=none;html=1;rounded=0;exitX=0.003;exitY=0.695;exitDx=0;exitDy=0;exitPerimeter=0;" edge="1" parent="WIyWlLk6GJQsqaUBKTNV-1" source="HQOiN5AQCsMCG7mMh8zH-17" target="HQOiN5AQCsMCG7mMh8zH-2">
          <mxGeometry width="50" height="50" relative="1" as="geometry">
            <mxPoint x="670" y="110" as="sourcePoint" />
            <mxPoint x="498" y="150" as="targetPoint" />
          </mxGeometry>
        </mxCell>
        <mxCell id="HQOiN5AQCsMCG7mMh8zH-81" value="" style="endArrow=none;html=1;rounded=0;exitX=0.231;exitY=1.004;exitDx=0;exitDy=0;exitPerimeter=0;entryX=0.688;entryY=0.192;entryDx=0;entryDy=0;entryPerimeter=0;" edge="1" parent="WIyWlLk6GJQsqaUBKTNV-1" source="HQOiN5AQCsMCG7mMh8zH-14" target="HQOiN5AQCsMCG7mMh8zH-2">
          <mxGeometry width="50" height="50" relative="1" as="geometry">
            <mxPoint x="630" y="78" as="sourcePoint" />
            <mxPoint x="499" y="151" as="targetPoint" />
          </mxGeometry>
        </mxCell>
        <mxCell id="HQOiN5AQCsMCG7mMh8zH-82" value="" style="endArrow=none;html=1;rounded=0;exitX=0.444;exitY=1;exitDx=0;exitDy=0;exitPerimeter=0;entryX=0.509;entryY=0.058;entryDx=0;entryDy=0;entryPerimeter=0;" edge="1" parent="WIyWlLk6GJQsqaUBKTNV-1" source="HQOiN5AQCsMCG7mMh8zH-77" target="HQOiN5AQCsMCG7mMh8zH-2">
          <mxGeometry width="50" height="50" relative="1" as="geometry">
            <mxPoint x="551" y="70" as="sourcePoint" />
            <mxPoint x="501" y="152" as="targetPoint" />
          </mxGeometry>
        </mxCell>
        <mxCell id="HQOiN5AQCsMCG7mMh8zH-83" value="" style="endArrow=none;html=1;rounded=0;exitX=0.636;exitY=1.042;exitDx=0;exitDy=0;exitPerimeter=0;entryX=0.316;entryY=0.167;entryDx=0;entryDy=0;entryPerimeter=0;" edge="1" parent="WIyWlLk6GJQsqaUBKTNV-1" source="HQOiN5AQCsMCG7mMh8zH-13" target="HQOiN5AQCsMCG7mMh8zH-2">
          <mxGeometry width="50" height="50" relative="1" as="geometry">
            <mxPoint x="470" y="70" as="sourcePoint" />
            <mxPoint x="467" y="143" as="targetPoint" />
          </mxGeometry>
        </mxCell>
        <mxCell id="HQOiN5AQCsMCG7mMh8zH-84" value="" style="endArrow=none;html=1;rounded=0;entryX=0.312;entryY=0.211;entryDx=0;entryDy=0;entryPerimeter=0;" edge="1" parent="WIyWlLk6GJQsqaUBKTNV-1" source="HQOiN5AQCsMCG7mMh8zH-22" target="HQOiN5AQCsMCG7mMh8zH-2">
          <mxGeometry width="50" height="50" relative="1" as="geometry">
            <mxPoint x="387" y="72" as="sourcePoint" />
            <mxPoint x="430" y="150" as="targetPoint" />
          </mxGeometry>
        </mxCell>
        <mxCell id="HQOiN5AQCsMCG7mMh8zH-85" value="" style="endArrow=none;html=1;rounded=0;entryX=0.29;entryY=0.173;entryDx=0;entryDy=0;entryPerimeter=0;exitX=1;exitY=0.5;exitDx=0;exitDy=0;" edge="1" parent="WIyWlLk6GJQsqaUBKTNV-1" source="HQOiN5AQCsMCG7mMh8zH-10" target="HQOiN5AQCsMCG7mMh8zH-2">
          <mxGeometry width="50" height="50" relative="1" as="geometry">
            <mxPoint x="321" y="86" as="sourcePoint" />
            <mxPoint x="429" y="153" as="targetPoint" />
          </mxGeometry>
        </mxCell>
        <mxCell id="HQOiN5AQCsMCG7mMh8zH-86" value="" style="endArrow=none;html=1;rounded=0;entryX=0.016;entryY=0.834;entryDx=0;entryDy=0;exitX=1;exitY=0.5;exitDx=0;exitDy=0;entryPerimeter=0;" edge="1" parent="WIyWlLk6GJQsqaUBKTNV-1" source="HQOiN5AQCsMCG7mMh8zH-21" target="HQOiN5AQCsMCG7mMh8zH-1">
          <mxGeometry width="50" height="50" relative="1" as="geometry">
            <mxPoint x="220" y="320" as="sourcePoint" />
            <mxPoint x="465" y="200" as="targetPoint" />
          </mxGeometry>
        </mxCell>
        <mxCell id="HQOiN5AQCsMCG7mMh8zH-87" value="" style="endArrow=none;html=1;rounded=0;entryX=0;entryY=1;entryDx=0;entryDy=0;" edge="1" parent="WIyWlLk6GJQsqaUBKTNV-1" source="HQOiN5AQCsMCG7mMh8zH-3" target="HQOiN5AQCsMCG7mMh8zH-1">
          <mxGeometry width="50" height="50" relative="1" as="geometry">
            <mxPoint x="120" y="370" as="sourcePoint" />
            <mxPoint x="162" y="370" as="targetPoint" />
          </mxGeometry>
        </mxCell>
        <mxCell id="HQOiN5AQCsMCG7mMh8zH-88" value="" style="endArrow=none;html=1;rounded=0;entryX=0.33;entryY=1.034;entryDx=0;entryDy=0;entryPerimeter=0;" edge="1" parent="WIyWlLk6GJQsqaUBKTNV-1" source="HQOiN5AQCsMCG7mMh8zH-4" target="HQOiN5AQCsMCG7mMh8zH-1">
          <mxGeometry width="50" height="50" relative="1" as="geometry">
            <mxPoint x="100" y="419" as="sourcePoint" />
            <mxPoint x="160" y="380" as="targetPoint" />
          </mxGeometry>
        </mxCell>
        <mxCell id="HQOiN5AQCsMCG7mMh8zH-89" value="" style="endArrow=none;html=1;rounded=0;entryX=0.58;entryY=1.053;entryDx=0;entryDy=0;entryPerimeter=0;" edge="1" parent="WIyWlLk6GJQsqaUBKTNV-1" source="HQOiN5AQCsMCG7mMh8zH-5" target="HQOiN5AQCsMCG7mMh8zH-1">
          <mxGeometry width="50" height="50" relative="1" as="geometry">
            <mxPoint x="192" y="445" as="sourcePoint" />
            <mxPoint x="200" y="382" as="targetPoint" />
          </mxGeometry>
        </mxCell>
        <mxCell id="HQOiN5AQCsMCG7mMh8zH-93" value="" style="endArrow=none;html=1;rounded=0;entryX=0.037;entryY=0.969;entryDx=0;entryDy=0;entryPerimeter=0;" edge="1" parent="WIyWlLk6GJQsqaUBKTNV-1" source="HQOiN5AQCsMCG7mMh8zH-18" target="HQOiN5AQCsMCG7mMh8zH-0">
          <mxGeometry width="50" height="50" relative="1" as="geometry">
            <mxPoint x="280" y="446" as="sourcePoint" />
            <mxPoint x="230" y="383" as="targetPoint" />
          </mxGeometry>
        </mxCell>
        <mxCell id="HQOiN5AQCsMCG7mMh8zH-94" value="" style="endArrow=none;html=1;rounded=0;entryX=0.25;entryY=1;entryDx=0;entryDy=0;exitX=1;exitY=0;exitDx=0;exitDy=0;" edge="1" parent="WIyWlLk6GJQsqaUBKTNV-1" source="HQOiN5AQCsMCG7mMh8zH-8" target="HQOiN5AQCsMCG7mMh8zH-0">
          <mxGeometry width="50" height="50" relative="1" as="geometry">
            <mxPoint x="588" y="406" as="sourcePoint" />
            <mxPoint x="644" y="383" as="targetPoint" />
          </mxGeometry>
        </mxCell>
        <mxCell id="HQOiN5AQCsMCG7mMh8zH-95" value="" style="endArrow=none;html=1;rounded=0;entryX=0.5;entryY=1;entryDx=0;entryDy=0;exitX=0.735;exitY=0.122;exitDx=0;exitDy=0;exitPerimeter=0;" edge="1" parent="WIyWlLk6GJQsqaUBKTNV-1" source="HQOiN5AQCsMCG7mMh8zH-15" target="HQOiN5AQCsMCG7mMh8zH-0">
          <mxGeometry width="50" height="50" relative="1" as="geometry">
            <mxPoint x="627" y="466" as="sourcePoint" />
            <mxPoint x="670" y="385" as="targetPoint" />
          </mxGeometry>
        </mxCell>
        <mxCell id="HQOiN5AQCsMCG7mMh8zH-96" value="" style="endArrow=none;html=1;rounded=0;entryX=0.75;entryY=1;entryDx=0;entryDy=0;" edge="1" parent="WIyWlLk6GJQsqaUBKTNV-1" source="HQOiN5AQCsMCG7mMh8zH-73" target="HQOiN5AQCsMCG7mMh8zH-0">
          <mxGeometry width="50" height="50" relative="1" as="geometry">
            <mxPoint x="676" y="505" as="sourcePoint" />
            <mxPoint x="700" y="385" as="targetPoint" />
          </mxGeometry>
        </mxCell>
        <mxCell id="HQOiN5AQCsMCG7mMh8zH-97" value="" style="endArrow=none;html=1;rounded=0;entryX=1;entryY=1;entryDx=0;entryDy=0;exitX=0.338;exitY=0.013;exitDx=0;exitDy=0;exitPerimeter=0;" edge="1" parent="WIyWlLk6GJQsqaUBKTNV-1" source="HQOiN5AQCsMCG7mMh8zH-74" target="HQOiN5AQCsMCG7mMh8zH-0">
          <mxGeometry width="50" height="50" relative="1" as="geometry">
            <mxPoint x="734" y="530" as="sourcePoint" />
            <mxPoint x="730" y="385" as="targetPoint" />
          </mxGeometry>
        </mxCell>
        <mxCell id="HQOiN5AQCsMCG7mMh8zH-98" value="" style="endArrow=none;html=1;rounded=0;entryX=1;entryY=1;entryDx=0;entryDy=0;" edge="1" parent="WIyWlLk6GJQsqaUBKTNV-1" source="HQOiN5AQCsMCG7mMh8zH-20" target="HQOiN5AQCsMCG7mMh8zH-0">
          <mxGeometry width="50" height="50" relative="1" as="geometry">
            <mxPoint x="810" y="531" as="sourcePoint" />
            <mxPoint x="760" y="385" as="targetPoint" />
          </mxGeometry>
        </mxCell>
        <mxCell id="HQOiN5AQCsMCG7mMh8zH-99" value="" style="endArrow=none;html=1;rounded=0;entryX=1.011;entryY=0.933;entryDx=0;entryDy=0;entryPerimeter=0;exitX=0.023;exitY=0.603;exitDx=0;exitDy=0;exitPerimeter=0;" edge="1" parent="WIyWlLk6GJQsqaUBKTNV-1" source="HQOiN5AQCsMCG7mMh8zH-7" target="HQOiN5AQCsMCG7mMh8zH-0">
          <mxGeometry width="50" height="50" relative="1" as="geometry">
            <mxPoint x="875" y="487" as="sourcePoint" />
            <mxPoint x="760" y="385" as="targetPoint" />
          </mxGeometry>
        </mxCell>
        <mxCell id="HQOiN5AQCsMCG7mMh8zH-100" value="" style="endArrow=none;html=1;rounded=0;entryX=1;entryY=0.5;entryDx=0;entryDy=0;exitX=0.015;exitY=0.654;exitDx=0;exitDy=0;exitPerimeter=0;" edge="1" parent="WIyWlLk6GJQsqaUBKTNV-1" source="HQOiN5AQCsMCG7mMh8zH-9" target="HQOiN5AQCsMCG7mMh8zH-0">
          <mxGeometry width="50" height="50" relative="1" as="geometry">
            <mxPoint x="872" y="454" as="sourcePoint" />
            <mxPoint x="761" y="381" as="targetPoint" />
          </mxGeometry>
        </mxCell>
        <mxCell id="HQOiN5AQCsMCG7mMh8zH-101" value="" style="endArrow=none;html=1;rounded=0;exitX=0;exitY=0.5;exitDx=0;exitDy=0;entryX=1;entryY=0.5;entryDx=0;entryDy=0;" edge="1" parent="WIyWlLk6GJQsqaUBKTNV-1" source="HQOiN5AQCsMCG7mMh8zH-16" target="HQOiN5AQCsMCG7mMh8zH-0">
          <mxGeometry width="50" height="50" relative="1" as="geometry">
            <mxPoint x="851" y="401" as="sourcePoint" />
            <mxPoint x="750" y="350" as="targetPoint" />
          </mxGeometry>
        </mxCell>
        <mxCell id="HQOiN5AQCsMCG7mMh8zH-107" value="Movimiento" style="swimlane;fontStyle=0;childLayout=stackLayout;horizontal=1;startSize=26;horizontalStack=0;resizeParent=1;resizeParentMax=0;resizeLast=0;collapsible=1;marginBottom=0;align=center;fontSize=14;" vertex="1" parent="WIyWlLk6GJQsqaUBKTNV-1">
          <mxGeometry x="400" y="630" width="180" height="280" as="geometry" />
        </mxCell>
        <mxCell id="HQOiN5AQCsMCG7mMh8zH-108" value="id_usuario int (FK)" style="text;strokeColor=none;fillColor=none;spacingLeft=4;spacingRight=4;overflow=hidden;rotatable=0;points=[[0,0.5],[1,0.5]];portConstraint=eastwest;fontSize=12;whiteSpace=wrap;html=1;" vertex="1" parent="HQOiN5AQCsMCG7mMh8zH-107">
          <mxGeometry y="26" width="180" height="30" as="geometry" />
        </mxCell>
        <mxCell id="HQOiN5AQCsMCG7mMh8zH-109" value="numero_solicitud int (FK)" style="text;strokeColor=none;fillColor=none;spacingLeft=4;spacingRight=4;overflow=hidden;rotatable=0;points=[[0,0.5],[1,0.5]];portConstraint=eastwest;fontSize=12;whiteSpace=wrap;html=1;" vertex="1" parent="HQOiN5AQCsMCG7mMh8zH-107">
          <mxGeometry y="56" width="180" height="30" as="geometry" />
        </mxCell>
        <mxCell id="HQOiN5AQCsMCG7mMh8zH-110" value="fecha_movimiento DATE" style="text;strokeColor=none;fillColor=none;spacingLeft=4;spacingRight=4;overflow=hidden;rotatable=0;points=[[0,0.5],[1,0.5]];portConstraint=eastwest;fontSize=12;whiteSpace=wrap;html=1;" vertex="1" parent="HQOiN5AQCsMCG7mMh8zH-107">
          <mxGeometry y="86" width="180" height="30" as="geometry" />
        </mxCell>
        <mxCell id="HQOiN5AQCsMCG7mMh8zH-134" value="monto DECIMAL(10,2)" style="text;strokeColor=none;fillColor=none;spacingLeft=4;spacingRight=4;overflow=hidden;rotatable=0;points=[[0,0.5],[1,0.5]];portConstraint=eastwest;fontSize=12;whiteSpace=wrap;html=1;" vertex="1" parent="HQOiN5AQCsMCG7mMh8zH-107">
          <mxGeometry y="116" width="180" height="30" as="geometry" />
        </mxCell>
        <mxCell id="HQOiN5AQCsMCG7mMh8zH-135" value="tipomov VARCHAR(10)" style="text;strokeColor=none;fillColor=none;spacingLeft=4;spacingRight=4;overflow=hidden;rotatable=0;points=[[0,0.5],[1,0.5]];portConstraint=eastwest;fontSize=12;whiteSpace=wrap;html=1;" vertex="1" parent="HQOiN5AQCsMCG7mMh8zH-107">
          <mxGeometry y="146" width="180" height="30" as="geometry" />
        </mxCell>
        <mxCell id="HQOiN5AQCsMCG7mMh8zH-136" value="interes DECIMAL(10,2)" style="text;strokeColor=none;fillColor=none;spacingLeft=4;spacingRight=4;overflow=hidden;rotatable=0;points=[[0,0.5],[1,0.5]];portConstraint=eastwest;fontSize=12;whiteSpace=wrap;html=1;" vertex="1" parent="HQOiN5AQCsMCG7mMh8zH-107">
          <mxGeometry y="176" width="180" height="30" as="geometry" />
        </mxCell>
        <mxCell id="HQOiN5AQCsMCG7mMh8zH-137" value="descripcion_movimiento VARCHAR(300)" style="text;strokeColor=none;fillColor=none;spacingLeft=4;spacingRight=4;overflow=hidden;rotatable=0;points=[[0,0.5],[1,0.5]];portConstraint=eastwest;fontSize=12;whiteSpace=wrap;html=1;" vertex="1" parent="HQOiN5AQCsMCG7mMh8zH-107">
          <mxGeometry y="206" width="180" height="30" as="geometry" />
        </mxCell>
        <mxCell id="HQOiN5AQCsMCG7mMh8zH-138" value="establecimiento_movimiento&amp;nbsp;&lt;div&gt;VARCHAR(30)&lt;/div&gt;" style="text;strokeColor=none;fillColor=none;spacingLeft=4;spacingRight=4;overflow=hidden;rotatable=0;points=[[0,0.5],[1,0.5]];portConstraint=eastwest;fontSize=12;whiteSpace=wrap;html=1;" vertex="1" parent="HQOiN5AQCsMCG7mMh8zH-107">
          <mxGeometry y="236" width="180" height="44" as="geometry" />
        </mxCell>
        <mxCell id="HQOiN5AQCsMCG7mMh8zH-111" value="" style="endArrow=none;html=1;rounded=0;" edge="1" parent="WIyWlLk6GJQsqaUBKTNV-1">
          <mxGeometry width="50" height="50" relative="1" as="geometry">
            <mxPoint x="990" y="600" as="sourcePoint" />
            <mxPoint x="70" y="600" as="targetPoint" />
          </mxGeometry>
        </mxCell>
        <mxCell id="HQOiN5AQCsMCG7mMh8zH-112" value="Tarjeta" style="swimlane;fontStyle=0;childLayout=stackLayout;horizontal=1;startSize=26;horizontalStack=0;resizeParent=1;resizeParentMax=0;resizeLast=0;collapsible=1;marginBottom=0;align=center;fontSize=14;" vertex="1" parent="WIyWlLk6GJQsqaUBKTNV-1">
          <mxGeometry x="120" y="840" width="160" height="320" as="geometry" />
        </mxCell>
        <mxCell id="HQOiN5AQCsMCG7mMh8zH-113" value="numero_solicitud INT (PK)" style="text;strokeColor=none;fillColor=none;spacingLeft=4;spacingRight=4;overflow=hidden;rotatable=0;points=[[0,0.5],[1,0.5]];portConstraint=eastwest;fontSize=12;whiteSpace=wrap;html=1;" vertex="1" parent="HQOiN5AQCsMCG7mMh8zH-112">
          <mxGeometry y="26" width="160" height="30" as="geometry" />
        </mxCell>
        <mxCell id="HQOiN5AQCsMCG7mMh8zH-114" value="tipo VARCHAR(15)" style="text;strokeColor=none;fillColor=none;spacingLeft=4;spacingRight=4;overflow=hidden;rotatable=0;points=[[0,0.5],[1,0.5]];portConstraint=eastwest;fontSize=12;whiteSpace=wrap;html=1;" vertex="1" parent="HQOiN5AQCsMCG7mMh8zH-112">
          <mxGeometry y="56" width="160" height="30" as="geometry" />
        </mxCell>
        <mxCell id="HQOiN5AQCsMCG7mMh8zH-115" value="limite INT" style="text;strokeColor=none;fillColor=none;spacingLeft=4;spacingRight=4;overflow=hidden;rotatable=0;points=[[0,0.5],[1,0.5]];portConstraint=eastwest;fontSize=12;whiteSpace=wrap;html=1;" vertex="1" parent="HQOiN5AQCsMCG7mMh8zH-112">
          <mxGeometry y="86" width="160" height="30" as="geometry" />
        </mxCell>
        <mxCell id="HQOiN5AQCsMCG7mMh8zH-142" value="estado VARCHAR(15)" style="text;strokeColor=none;fillColor=none;spacingLeft=4;spacingRight=4;overflow=hidden;rotatable=0;points=[[0,0.5],[1,0.5]];portConstraint=eastwest;fontSize=12;whiteSpace=wrap;html=1;" vertex="1" parent="HQOiN5AQCsMCG7mMh8zH-112">
          <mxGeometry y="116" width="160" height="30" as="geometry" />
        </mxCell>
        <mxCell id="HQOiN5AQCsMCG7mMh8zH-143" value="numero_tarjeta VARCHAR(20)" style="text;strokeColor=none;fillColor=none;spacingLeft=4;spacingRight=4;overflow=hidden;rotatable=0;points=[[0,0.5],[1,0.5]];portConstraint=eastwest;fontSize=12;whiteSpace=wrap;html=1;" vertex="1" parent="HQOiN5AQCsMCG7mMh8zH-112">
          <mxGeometry y="146" width="160" height="44" as="geometry" />
        </mxCell>
        <mxCell id="HQOiN5AQCsMCG7mMh8zH-144" value="saldo&amp;nbsp;DECIMAL(10,2)" style="text;strokeColor=none;fillColor=none;spacingLeft=4;spacingRight=4;overflow=hidden;rotatable=0;points=[[0,0.5],[1,0.5]];portConstraint=eastwest;fontSize=12;whiteSpace=wrap;html=1;" vertex="1" parent="HQOiN5AQCsMCG7mMh8zH-112">
          <mxGeometry y="190" width="160" height="30" as="geometry" />
        </mxCell>
        <mxCell id="HQOiN5AQCsMCG7mMh8zH-145" value="fecha_creacion DATE" style="text;strokeColor=none;fillColor=none;spacingLeft=4;spacingRight=4;overflow=hidden;rotatable=0;points=[[0,0.5],[1,0.5]];portConstraint=eastwest;fontSize=12;whiteSpace=wrap;html=1;" vertex="1" parent="HQOiN5AQCsMCG7mMh8zH-112">
          <mxGeometry y="220" width="160" height="30" as="geometry" />
        </mxCell>
        <mxCell id="HQOiN5AQCsMCG7mMh8zH-146" value="fecha_cancelacion DATE" style="text;strokeColor=none;fillColor=none;spacingLeft=4;spacingRight=4;overflow=hidden;rotatable=0;points=[[0,0.5],[1,0.5]];portConstraint=eastwest;fontSize=12;whiteSpace=wrap;html=1;" vertex="1" parent="HQOiN5AQCsMCG7mMh8zH-112">
          <mxGeometry y="250" width="160" height="30" as="geometry" />
        </mxCell>
        <mxCell id="HQOiN5AQCsMCG7mMh8zH-147" value="fecha_ultima_modificacion DATE" style="text;strokeColor=none;fillColor=none;spacingLeft=4;spacingRight=4;overflow=hidden;rotatable=0;points=[[0,0.5],[1,0.5]];portConstraint=eastwest;fontSize=12;whiteSpace=wrap;html=1;" vertex="1" parent="HQOiN5AQCsMCG7mMh8zH-112">
          <mxGeometry y="280" width="160" height="40" as="geometry" />
        </mxCell>
        <mxCell id="HQOiN5AQCsMCG7mMh8zH-116" value="Usuario" style="swimlane;fontStyle=0;childLayout=stackLayout;horizontal=1;startSize=26;horizontalStack=0;resizeParent=1;resizeParentMax=0;resizeLast=0;collapsible=1;marginBottom=0;align=center;fontSize=14;" vertex="1" parent="WIyWlLk6GJQsqaUBKTNV-1">
          <mxGeometry x="700" y="890" width="160" height="146" as="geometry" />
        </mxCell>
        <mxCell id="HQOiN5AQCsMCG7mMh8zH-117" value="id_usuario INT (PK)" style="text;strokeColor=none;fillColor=none;spacingLeft=4;spacingRight=4;overflow=hidden;rotatable=0;points=[[0,0.5],[1,0.5]];portConstraint=eastwest;fontSize=12;whiteSpace=wrap;html=1;" vertex="1" parent="HQOiN5AQCsMCG7mMh8zH-116">
          <mxGeometry y="26" width="160" height="30" as="geometry" />
        </mxCell>
        <mxCell id="HQOiN5AQCsMCG7mMh8zH-118" value="nombre VARCHAR(100)" style="text;strokeColor=none;fillColor=none;spacingLeft=4;spacingRight=4;overflow=hidden;rotatable=0;points=[[0,0.5],[1,0.5]];portConstraint=eastwest;fontSize=12;whiteSpace=wrap;html=1;" vertex="1" parent="HQOiN5AQCsMCG7mMh8zH-116">
          <mxGeometry y="56" width="160" height="30" as="geometry" />
        </mxCell>
        <mxCell id="HQOiN5AQCsMCG7mMh8zH-119" value="direccion VARCHAR(100)" style="text;strokeColor=none;fillColor=none;spacingLeft=4;spacingRight=4;overflow=hidden;rotatable=0;points=[[0,0.5],[1,0.5]];portConstraint=eastwest;fontSize=12;whiteSpace=wrap;html=1;" vertex="1" parent="HQOiN5AQCsMCG7mMh8zH-116">
          <mxGeometry y="86" width="160" height="30" as="geometry" />
        </mxCell>
        <mxCell id="HQOiN5AQCsMCG7mMh8zH-148" value="salario INT" style="text;strokeColor=none;fillColor=none;spacingLeft=4;spacingRight=4;overflow=hidden;rotatable=0;points=[[0,0.5],[1,0.5]];portConstraint=eastwest;fontSize=12;whiteSpace=wrap;html=1;" vertex="1" parent="HQOiN5AQCsMCG7mMh8zH-116">
          <mxGeometry y="116" width="160" height="30" as="geometry" />
        </mxCell>
        <mxCell id="HQOiN5AQCsMCG7mMh8zH-120" value="1 Usuario Muchos Movimientos&lt;div&gt;1 a muchos. 1 movimiento 1 usuario, 1 a 1.&lt;/div&gt;" style="text;html=1;align=center;verticalAlign=middle;whiteSpace=wrap;rounded=0;" vertex="1" parent="WIyWlLk6GJQsqaUBKTNV-1">
          <mxGeometry x="1030" y="550" width="190" height="30" as="geometry" />
        </mxCell>
        <mxCell id="HQOiN5AQCsMCG7mMh8zH-121" value="Usuario" style="rounded=0;whiteSpace=wrap;html=1;" vertex="1" parent="WIyWlLk6GJQsqaUBKTNV-1">
          <mxGeometry x="1175" y="450" width="120" height="60" as="geometry" />
        </mxCell>
        <mxCell id="HQOiN5AQCsMCG7mMh8zH-122" value="Movimientos" style="rounded=0;whiteSpace=wrap;html=1;" vertex="1" parent="WIyWlLk6GJQsqaUBKTNV-1">
          <mxGeometry x="1170" y="660" width="120" height="60" as="geometry" />
        </mxCell>
        <mxCell id="HQOiN5AQCsMCG7mMh8zH-123" value="" style="edgeStyle=orthogonalEdgeStyle;rounded=0;html=1;jettySize=auto;orthogonalLoop=1;fontSize=11;endArrow=block;endFill=0;endSize=8;strokeWidth=1;shadow=0;labelBackgroundColor=none;exitX=0.5;exitY=1;exitDx=0;exitDy=0;" edge="1" parent="WIyWlLk6GJQsqaUBKTNV-1" source="HQOiN5AQCsMCG7mMh8zH-121">
          <mxGeometry x="-0.1364" relative="1" as="geometry">
            <mxPoint as="offset" />
            <mxPoint x="1205" y="610" as="sourcePoint" />
            <mxPoint x="1235" y="660" as="targetPoint" />
          </mxGeometry>
        </mxCell>
        <mxCell id="HQOiN5AQCsMCG7mMh8zH-124" value="1" style="text;html=1;align=center;verticalAlign=middle;whiteSpace=wrap;rounded=0;" vertex="1" parent="WIyWlLk6GJQsqaUBKTNV-1">
          <mxGeometry x="1235" y="510" width="40" height="30" as="geometry" />
        </mxCell>
        <mxCell id="HQOiN5AQCsMCG7mMh8zH-125" value="*" style="text;html=1;align=center;verticalAlign=middle;whiteSpace=wrap;rounded=0;" vertex="1" parent="WIyWlLk6GJQsqaUBKTNV-1">
          <mxGeometry x="1235" y="640" width="40" height="30" as="geometry" />
        </mxCell>
        <mxCell id="HQOiN5AQCsMCG7mMh8zH-126" value="Tarjeta" style="rounded=0;whiteSpace=wrap;html=1;" vertex="1" parent="WIyWlLk6GJQsqaUBKTNV-1">
          <mxGeometry x="1470" y="315" width="120" height="60" as="geometry" />
        </mxCell>
        <mxCell id="HQOiN5AQCsMCG7mMh8zH-127" value="Movimientos" style="rounded=0;whiteSpace=wrap;html=1;" vertex="1" parent="WIyWlLk6GJQsqaUBKTNV-1">
          <mxGeometry x="1465" y="525" width="120" height="60" as="geometry" />
        </mxCell>
        <mxCell id="HQOiN5AQCsMCG7mMh8zH-128" value="" style="edgeStyle=orthogonalEdgeStyle;rounded=0;html=1;jettySize=auto;orthogonalLoop=1;fontSize=11;endArrow=block;endFill=0;endSize=8;strokeWidth=1;shadow=0;labelBackgroundColor=none;exitX=0.5;exitY=1;exitDx=0;exitDy=0;" edge="1" parent="WIyWlLk6GJQsqaUBKTNV-1" source="HQOiN5AQCsMCG7mMh8zH-126">
          <mxGeometry x="-0.1364" relative="1" as="geometry">
            <mxPoint as="offset" />
            <mxPoint x="1500" y="475" as="sourcePoint" />
            <mxPoint x="1530" y="525" as="targetPoint" />
          </mxGeometry>
        </mxCell>
        <mxCell id="HQOiN5AQCsMCG7mMh8zH-129" value="1" style="text;html=1;align=center;verticalAlign=middle;whiteSpace=wrap;rounded=0;" vertex="1" parent="WIyWlLk6GJQsqaUBKTNV-1">
          <mxGeometry x="1530" y="375" width="40" height="30" as="geometry" />
        </mxCell>
        <mxCell id="HQOiN5AQCsMCG7mMh8zH-130" value="*" style="text;html=1;align=center;verticalAlign=middle;whiteSpace=wrap;rounded=0;" vertex="1" parent="WIyWlLk6GJQsqaUBKTNV-1">
          <mxGeometry x="1530" y="505" width="40" height="30" as="geometry" />
        </mxCell>
        <mxCell id="HQOiN5AQCsMCG7mMh8zH-131" value="1 Tarjeta Muchos Movimientos&lt;div&gt;1 a muchos. 1 movimiento 1 tarjeta, 1 a 1.&lt;/div&gt;" style="text;html=1;align=center;verticalAlign=middle;whiteSpace=wrap;rounded=0;" vertex="1" parent="WIyWlLk6GJQsqaUBKTNV-1">
          <mxGeometry x="1320" y="415" width="190" height="30" as="geometry" />
        </mxCell>
        <mxCell id="HQOiN5AQCsMCG7mMh8zH-132" value="" style="edgeStyle=entityRelationEdgeStyle;fontSize=12;html=1;endArrow=ERoneToMany;startArrow=ERmandOne;rounded=0;exitX=1.01;exitY=0.929;exitDx=0;exitDy=0;exitPerimeter=0;entryX=0;entryY=0.5;entryDx=0;entryDy=0;" edge="1" parent="WIyWlLk6GJQsqaUBKTNV-1" source="HQOiN5AQCsMCG7mMh8zH-113" target="HQOiN5AQCsMCG7mMh8zH-134">
          <mxGeometry width="100" height="100" relative="1" as="geometry">
            <mxPoint x="460" y="1040" as="sourcePoint" />
            <mxPoint x="390" y="760" as="targetPoint" />
            <Array as="points">
              <mxPoint x="240" y="890" />
            </Array>
          </mxGeometry>
        </mxCell>
        <mxCell id="HQOiN5AQCsMCG7mMh8zH-133" value="" style="edgeStyle=entityRelationEdgeStyle;fontSize=12;html=1;endArrow=ERoneToMany;startArrow=ERmandOne;rounded=0;entryX=1;entryY=0.5;entryDx=0;entryDy=0;exitX=-0.017;exitY=0.127;exitDx=0;exitDy=0;exitPerimeter=0;" edge="1" parent="WIyWlLk6GJQsqaUBKTNV-1" source="HQOiN5AQCsMCG7mMh8zH-118" target="HQOiN5AQCsMCG7mMh8zH-134">
          <mxGeometry width="100" height="100" relative="1" as="geometry">
            <mxPoint x="292" y="954" as="sourcePoint" />
            <mxPoint x="377" y="762" as="targetPoint" />
            <Array as="points">
              <mxPoint x="250" y="900" />
            </Array>
          </mxGeometry>
        </mxCell>
      </root>
    </mxGraphModel>
  </diagram>
</mxfile>
